<svg width="20" height="20" viewBox="0 0 20 20" fill="none" xmlns="http://www.w3.org/2000/svg">
<path d="M1.66663 15C1.66663 13.7163 1.66663 13.0745 1.95557 12.6029C2.11724 12.3391 2.33907 12.1173 2.6029 11.9556C3.07441 11.6667 3.71626 11.6667 4.99996 11.6667C6.28366 11.6667 6.92551 11.6667 7.39701 11.9556C7.66085 12.1173 7.88267 12.3391 8.04435 12.6029C8.33329 13.0745 8.33329 13.7163 8.33329 15C8.33329 16.2837 8.33329 16.9256 8.04435 17.3971C7.88267 17.6609 7.66085 17.8827 7.39701 18.0444C6.92551 18.3333 6.28366 18.3333 4.99996 18.3333C3.71626 18.3333 3.07441 18.3333 2.6029 18.0444C2.33907 17.8827 2.11724 17.6609 1.95557 17.3971C1.66663 16.9256 1.66663 16.2837 1.66663 15Z" stroke="#B7BACB" stroke-width="1.5"/>
<path d="M11.6666 15C11.6666 13.7163 11.6666 13.0745 11.9556 12.6029C12.1172 12.3391 12.3391 12.1173 12.6029 11.9556C13.0744 11.6667 13.7163 11.6667 15 11.6667C16.2837 11.6667 16.9255 11.6667 17.397 11.9556C17.6608 12.1173 17.8827 12.3391 18.0444 12.6029C18.3333 13.0745 18.3333 13.7163 18.3333 15C18.3333 16.2837 18.3333 16.9256 18.0444 17.3971C17.8827 17.6609 17.6608 17.8827 17.397 18.0444C16.9255 18.3333 16.2837 18.3333 15 18.3333C13.7163 18.3333 13.0744 18.3333 12.6029 18.0444C12.3391 17.8827 12.1172 17.6609 11.9556 17.3971C11.6666 16.9256 11.6666 16.2837 11.6666 15Z" stroke="#B7BACB" stroke-width="1.5"/>
<path d="M1.66663 5C1.66663 3.71631 1.66663 3.07446 1.95557 2.60295C2.11724 2.33911 2.33907 2.11729 2.6029 1.95561C3.07441 1.66667 3.71626 1.66667 4.99996 1.66667C6.28366 1.66667 6.92551 1.66667 7.39701 1.95561C7.66085 2.11729 7.88267 2.33911 8.04435 2.60295C8.33329 3.07446 8.33329 3.71631 8.33329 5C8.33329 6.2837 8.33329 6.92555 8.04435 7.39706C7.88267 7.66089 7.66085 7.88272 7.39701 8.0444C6.92551 8.33334 6.28366 8.33334 4.99996 8.33334C3.71626 8.33334 3.07441 8.33334 2.6029 8.0444C2.33907 7.88272 2.11724 7.66089 1.95557 7.39706C1.66663 6.92555 1.66663 6.2837 1.66663 5Z" stroke="#B7BACB" stroke-width="1.5"/>
<path d="M11.6666 5C11.6666 3.71631 11.6666 3.07446 11.9556 2.60295C12.1172 2.33911 12.3391 2.11729 12.6029 1.95561C13.0744 1.66667 13.7163 1.66667 15 1.66667C16.2837 1.66667 16.9255 1.66667 17.397 1.95561C17.6608 2.11729 17.8827 2.33911 18.0444 2.60295C18.3333 3.07446 18.3333 3.71631 18.3333 5C18.3333 6.2837 18.3333 6.92555 18.0444 7.39706C17.8827 7.66089 17.6608 7.88272 17.397 8.0444C16.9255 8.33334 16.2837 8.33334 15 8.33334C13.7163 8.33334 13.0744 8.33334 12.6029 8.0444C12.3391 7.88272 12.1172 7.66089 11.9556 7.39706C11.6666 6.92555 11.6666 6.2837 11.6666 5Z" stroke="#B7BACB" stroke-width="1.5"/>
</svg>
